<svg width="120" height="120" viewBox="0 0 120 120" fill="none" xmlns="http://www.w3.org/2000/svg">
<rect width="120" height="120" rx="60" fill="white"/>
<path d="M23.483 38.8182H29.3324L41.0312 58.5085H41.5256L53.2244 38.8182H59.0739L43.8324 63.6165V81H38.7244V63.6165L23.483 38.8182Z" fill="black"/>
<path d="M88.7484 49.3636C88.5012 47.2765 87.4989 45.6562 85.7413 44.5028C83.9837 43.3494 81.8279 42.7727 79.274 42.7727C77.4065 42.7727 75.7726 43.0748 74.372 43.679C72.9851 44.2831 71.9004 45.1139 71.1177 46.1712C70.3488 47.2285 69.9643 48.4299 69.9643 49.7756C69.9643 50.9015 70.2321 51.8696 70.7676 52.6797C71.3168 53.4761 72.0171 54.142 72.8684 54.6776C73.7198 55.1993 74.6123 55.6319 75.546 55.9751C76.4797 56.3047 77.3379 56.5724 78.1206 56.7784L82.4047 57.9318C83.5031 58.2202 84.7252 58.6184 86.0708 59.1264C87.4302 59.6345 88.7278 60.3279 89.9636 61.2067C91.2131 62.0717 92.243 63.1839 93.0531 64.5433C93.8632 65.9027 94.2683 67.571 94.2683 69.5483C94.2683 71.8277 93.671 73.8873 92.4764 75.7273C91.2955 77.5672 89.5654 79.0296 87.286 80.1143C85.0204 81.1991 82.2673 81.7415 79.0268 81.7415C76.006 81.7415 73.3902 81.254 71.1795 80.2791C68.9825 79.3042 67.2524 77.9448 65.9892 76.201C64.7396 74.4571 64.0325 72.4318 63.8677 70.125H69.1404C69.2778 71.7178 69.8133 73.036 70.747 74.0795C71.6944 75.1094 72.889 75.8783 74.3308 76.3864C75.7863 76.8807 77.3516 77.1278 79.0268 77.1278C80.9766 77.1278 82.7273 76.812 84.2789 76.1804C85.8306 75.535 87.0595 74.6425 87.9657 73.5028C88.872 72.3494 89.3251 71.0038 89.3251 69.4659C89.3251 68.0653 88.9338 66.9257 88.1511 66.0469C87.3684 65.1681 86.3386 64.4541 85.0616 63.9048C83.7846 63.3556 82.4047 62.875 80.9217 62.4631L75.7314 60.9801C72.4359 60.0327 69.827 58.6802 67.9047 56.9226C65.9823 55.165 65.0211 52.8651 65.0211 50.0227C65.0211 47.661 65.6596 45.6013 66.9366 43.8438C68.2273 42.0724 69.9574 40.6993 72.127 39.7244C74.3102 38.7358 76.7475 38.2415 79.4387 38.2415C82.1575 38.2415 84.5742 38.7289 86.6887 39.7038C88.8033 40.665 90.4785 41.9832 91.7143 43.6584C92.9638 45.3336 93.6229 47.2353 93.6916 49.3636H88.7484Z" fill="#8F81F8"/>
</svg>
